<svg xmlns="http://www.w3.org/2000/svg" viewBox="0 0 880 500" font-family="'Red Hat Text', system-ui, sans-serif" role="img">
<defs><marker id="a" viewBox="0 0 10 10" refX="8.5" refY="5" markerWidth="9" markerHeight="9" orient="auto-start-reverse"><path d="M0,0 L10,5 L0,10 z" fill="#555"/></marker><marker id="am" viewBox="0 0 10 10" refX="8.5" refY="5" markerWidth="9" markerHeight="9" orient="auto-start-reverse"><path d="M0,0 L10,5 L0,10 z" fill="#b8650a"/></marker></defs>
<rect x="40" y="100" width="200" height="380" rx="12" fill="#0D1B2A" stroke="#ddd"/>
<text x="52" y="120" font-size="12" font-weight="700" fill="#888">Container: 2 GB</text>
<rect x="60" y="135" width="160" height="160" rx="9" fill="#0D2818" stroke="#27AE60" stroke-width="1.5"/>
<text x="140.0" y="198.0" font-size="13.5" font-weight="700" fill="#ECF0F1" text-anchor="middle">Heap</text>
<text x="140.0" y="215.0" font-size="11.5" fill="#90A4AE" text-anchor="middle">Old + Young Gen</text>
<text x="140.0" y="230.0" font-size="11.5" fill="#90A4AE" text-anchor="middle">50-75% of limit</text>
<text x="140.0" y="245.0" font-size="11.5" fill="#90A4AE" text-anchor="middle">MaxRAMPercentage</text>
<rect x="60" y="305" width="160" height="50" rx="9" fill="#281E0D" stroke="#F5A623" stroke-width="2"/>
<text x="140.0" y="328.0" font-size="13.5" font-weight="700" fill="#ECF0F1" text-anchor="middle">Metaspace</text>
<text x="140.0" y="345.0" font-size="11.5" fill="#90A4AE" text-anchor="middle">80-250 MB</text>
<rect x="60" y="365" width="160" height="50" rx="9" fill="#122040" stroke="#1E3A5F" stroke-width="2"/>
<text x="140.0" y="388.0" font-size="13.5" font-weight="700" fill="#ECF0F1" text-anchor="middle">Thread Stacks</text>
<text x="140.0" y="405.0" font-size="11.5" fill="#90A4AE" text-anchor="middle">1 MB / thread</text>
<rect x="60" y="425" width="160" height="45" rx="9" fill="#0D1B2A" stroke="#1E3A5F" stroke-width="1.5"/>
<text x="140.0" y="445.5" font-size="13.5" font-weight="700" fill="#ECF0F1" text-anchor="middle">Native + GC</text>
<text x="140.0" y="462.5" font-size="11.5" fill="#90A4AE" text-anchor="middle">150-400 MB</text>
<rect x="300" y="135" width="250" height="60" rx="9" fill="#0D2818" stroke="#27AE60" stroke-width="1.5"/>
<text x="425.0" y="163.0" font-size="13.5" font-weight="700" fill="#ECF0F1" text-anchor="middle">MaxRAMPercentage=75</text>
<text x="425.0" y="180.0" font-size="11.5" fill="#90A4AE" text-anchor="middle">Controlled via JVM flag</text>
<rect x="300" y="215" width="250" height="60" rx="9" fill="#281E0D" stroke="#F5A623" stroke-width="2"/>
<text x="425.0" y="243.0" font-size="13.5" font-weight="700" fill="#ECF0F1" text-anchor="middle">MaxMetaspaceSize=256m</text>
<text x="425.0" y="260.0" font-size="11.5" fill="#90A4AE" text-anchor="middle">Spring Boot: 80-250 MB</text>
<rect x="300" y="295" width="250" height="60" rx="9" fill="#122040" stroke="#1E3A5F" stroke-width="2"/>
<text x="425.0" y="323.0" font-size="13.5" font-weight="700" fill="#ECF0F1" text-anchor="middle">Virtual Threads</text>
<text x="425.0" y="340.0" font-size="11.5" fill="#90A4AE" text-anchor="middle">Stacks move to heap</text>
<rect x="300" y="375" width="250" height="60" rx="9" fill="#0D1B2A" stroke="#1E3A5F" stroke-width="1.5"/>
<text x="425.0" y="403.0" font-size="13.5" font-weight="700" fill="#ECF0F1" text-anchor="middle">Direct ByteBuffers</text>
<text x="425.0" y="420.0" font-size="11.5" fill="#90A4AE" text-anchor="middle">Netty / NIO config</text>
<rect x="610" y="135" width="230" height="100" rx="9" fill="#2C1810" stroke="#E84855" stroke-width="1.5"/>
<text x="725.0" y="168.0" font-size="13.5" font-weight="700" fill="#ECF0F1" text-anchor="middle">WARNING</text>
<text x="725.0" y="185.0" font-size="11.5" fill="#90A4AE" text-anchor="middle">MaxRAMPercentage=90</text>
<text x="725.0" y="200.0" font-size="11.5" fill="#90A4AE" text-anchor="middle">starves off-heap regions</text>
<text x="725.0" y="215.0" font-size="11.5" fill="#90A4AE" text-anchor="middle">OOMKill during class load</text>
<rect x="610" y="260" width="230" height="80" rx="9" fill="#00BCD4" stroke="#00BCD4" stroke-width="2"/>
<text x="725.0" y="290.5" font-size="13.5" font-weight="700" fill="#ffffff" text-anchor="middle">MEASURE WITH</text>
<text x="725.0" y="307.5" font-size="11.5" fill="#dddddd" text-anchor="middle">jcmd pid</text>
<text x="725.0" y="322.5" font-size="11.5" fill="#dddddd" text-anchor="middle">VM.native_memory summary</text>
<path d="M220,195 L300,165" fill="none" stroke="#555" stroke-width="2" marker-end="url(#a)"/>
<text x="266.0" y="174.0" font-size="11" fill="#ffffff" stroke="#ffffff" stroke-width="3" paint-order="stroke" text-anchor="middle">75%</text>
<text x="266.0" y="174.0" font-size="11" fill="#555" text-anchor="middle">75%</text>
<path d="M220,330 L300,245" fill="none" stroke="#555" stroke-width="2" marker-end="url(#a)"/>
<path d="M220,390 L300,325" fill="none" stroke="#555" stroke-width="2" marker-end="url(#a)"/>
<text x="440" y="30" font-size="20" fill="#00BCD4" text-anchor="middle" font-weight="700">JVM Memory Regions in a Container</text>
<text x="440" y="55" font-size="13" fill="#90A4AE" text-anchor="middle">MaxRAMPercentage=75 only controls Heap — leaving 25% for 5 other regions</text>
</svg>