<svg xmlns="http://www.w3.org/2000/svg" viewBox="0 0 880 420" font-family="'Red Hat Text', system-ui, sans-serif" role="img">
<defs><marker id="a" viewBox="0 0 10 10" refX="8.5" refY="5" markerWidth="9" markerHeight="9" orient="auto-start-reverse"><path d="M0,0 L10,5 L0,10 z" fill="#555"/></marker><marker id="am" viewBox="0 0 10 10" refX="8.5" refY="5" markerWidth="9" markerHeight="9" orient="auto-start-reverse"><path d="M0,0 L10,5 L0,10 z" fill="#b8650a"/></marker></defs>
<rect x="20" y="100" width="840" height="140" rx="12" fill="#2C1810" stroke="#ddd"/>
<text x="32" y="120" font-size="12" font-weight="700" fill="#888">Baseline Startup: ~4-8 seconds</text>
<rect x="20" y="260" width="840" height="140" rx="12" fill="#0D2818" stroke="#ddd"/>
<text x="32" y="280" font-size="12" font-weight="700" fill="#888">With AppCDS: ~2-4 seconds (35-55% faster)</text>
<rect x="40" y="130" width="200" height="80" rx="9" fill="#2C1810" stroke="#E84855" stroke-width="1.5"/>
<text x="140.0" y="160.5" font-size="13.5" font-weight="700" fill="#ECF0F1" text-anchor="middle">Class Loading</text>
<text x="140.0" y="177.5" font-size="11.5" fill="#90A4AE" text-anchor="middle">~1.5-3s</text>
<text x="140.0" y="192.5" font-size="11.5" fill="#90A4AE" text-anchor="middle">10,000-15,000 classes</text>
<rect x="260" y="130" width="180" height="80" rx="9" fill="#2C1810" stroke="#E84855" stroke-width="1.5"/>
<text x="350.0" y="160.5" font-size="13.5" font-weight="700" fill="#ECF0F1" text-anchor="middle">Auto-Config</text>
<text x="350.0" y="177.5" font-size="11.5" fill="#90A4AE" text-anchor="middle">~0.5-1.5s</text>
<text x="350.0" y="192.5" font-size="11.5" fill="#90A4AE" text-anchor="middle">Condition evaluation</text>
<rect x="460" y="130" width="180" height="80" rx="9" fill="#281E0D" stroke="#F5A623" stroke-width="2"/>
<text x="550.0" y="160.5" font-size="13.5" font-weight="700" fill="#ECF0F1" text-anchor="middle">Bean Init + DI</text>
<text x="550.0" y="177.5" font-size="11.5" fill="#90A4AE" text-anchor="middle">~1-2s</text>
<text x="550.0" y="192.5" font-size="11.5" fill="#90A4AE" text-anchor="middle">Instantiation &amp; wiring</text>
<rect x="660" y="130" width="180" height="80" rx="9" fill="#281E0D" stroke="#F5A623" stroke-width="2"/>
<text x="750.0" y="160.5" font-size="13.5" font-weight="700" fill="#ECF0F1" text-anchor="middle">Tomcat Start</text>
<text x="750.0" y="177.5" font-size="11.5" fill="#90A4AE" text-anchor="middle">~0.5-1s</text>
<text x="750.0" y="192.5" font-size="11.5" fill="#90A4AE" text-anchor="middle">Embedded server</text>
<rect x="40" y="290" width="120" height="80" rx="9" fill="#0D2818" stroke="#27AE60" stroke-width="1.5"/>
<text x="100.0" y="320.5" font-size="13.5" font-weight="700" fill="#ECF0F1" text-anchor="middle">Class Loading</text>
<text x="100.0" y="337.5" font-size="11.5" fill="#90A4AE" text-anchor="middle">~0.3-0.8s</text>
<text x="100.0" y="352.5" font-size="11.5" fill="#90A4AE" text-anchor="middle">CDS archive</text>
<rect x="180" y="290" width="140" height="80" rx="9" fill="#0D2818" stroke="#27AE60" stroke-width="1.5"/>
<text x="250.0" y="320.5" font-size="13.5" font-weight="700" fill="#ECF0F1" text-anchor="middle">Auto-Config</text>
<text x="250.0" y="337.5" font-size="11.5" fill="#90A4AE" text-anchor="middle">~0.3-0.8s</text>
<text x="250.0" y="352.5" font-size="11.5" fill="#90A4AE" text-anchor="middle">Pre-linked</text>
<rect x="340" y="290" width="180" height="80" rx="9" fill="#281E0D" stroke="#F5A623" stroke-width="2"/>
<text x="430.0" y="320.5" font-size="13.5" font-weight="700" fill="#ECF0F1" text-anchor="middle">Bean Init + DI</text>
<text x="430.0" y="337.5" font-size="11.5" fill="#90A4AE" text-anchor="middle">~0.8-1.5s</text>
<text x="430.0" y="352.5" font-size="11.5" fill="#90A4AE" text-anchor="middle">Same (not cached)</text>
<rect x="540" y="290" width="140" height="80" rx="9" fill="#281E0D" stroke="#F5A623" stroke-width="2"/>
<text x="610.0" y="320.5" font-size="13.5" font-weight="700" fill="#ECF0F1" text-anchor="middle">Tomcat Start</text>
<text x="610.0" y="337.5" font-size="11.5" fill="#90A4AE" text-anchor="middle">~0.4-0.8s</text>
<text x="610.0" y="352.5" font-size="11.5" fill="#90A4AE" text-anchor="middle">Same</text>
<rect x="720" y="290" width="120" height="80" rx="9" fill="#00BCD4" stroke="#00BCD4" stroke-width="2"/>
<text x="780.0" y="320.5" font-size="13.5" font-weight="700" fill="#ffffff" text-anchor="middle">SAVINGS</text>
<text x="780.0" y="337.5" font-size="11.5" fill="#dddddd" text-anchor="middle">35-55%</text>
<text x="780.0" y="352.5" font-size="11.5" fill="#dddddd" text-anchor="middle">faster</text>
<path d="M240,170 L260,170" fill="none" stroke="#555" stroke-width="2" marker-end="url(#a)"/>
<path d="M440,170 L460,170" fill="none" stroke="#555" stroke-width="2" marker-end="url(#a)"/>
<path d="M640,170 L660,170" fill="none" stroke="#555" stroke-width="2" marker-end="url(#a)"/>
<path d="M160,330 L180,330" fill="none" stroke="#555" stroke-width="2" marker-end="url(#a)"/>
<path d="M320,330 L340,330" fill="none" stroke="#555" stroke-width="2" marker-end="url(#a)"/>
<path d="M520,330 L540,330" fill="none" stroke="#555" stroke-width="2" marker-end="url(#a)"/>
<path d="M680,330 L720,330" fill="none" stroke="#b8650a" stroke-width="2" marker-end="url(#am)"/>
<text x="440" y="25" font-size="20" fill="#00BCD4" text-anchor="middle" font-weight="700">Spring Boot Startup Breakdown</text>
<text x="440" y="50" font-size="13" fill="#90A4AE" text-anchor="middle">AppCDS caches class loading + linking — the phases Spring Boot spends most time on</text>
</svg>