<svg xmlns="http://www.w3.org/2000/svg" viewBox="0 0 880 420" font-family="'Red Hat Text', system-ui, sans-serif" role="img">
<defs><marker id="a" viewBox="0 0 10 10" refX="8.5" refY="5" markerWidth="9" markerHeight="9" orient="auto-start-reverse"><path d="M0,0 L10,5 L0,10 z" fill="#555"/></marker><marker id="am" viewBox="0 0 10 10" refX="8.5" refY="5" markerWidth="9" markerHeight="9" orient="auto-start-reverse"><path d="M0,0 L10,5 L0,10 z" fill="#b8650a"/></marker></defs>
<rect x="20" y="100" width="280" height="300" rx="12" fill="#0D1B2A" stroke="#ddd"/>
<text x="32" y="120" font-size="12" font-weight="700" fill="#888">Spring Boot App</text>
<rect x="320" y="100" width="240" height="300" rx="12" fill="#0D1B2A" stroke="#ddd"/>
<text x="332" y="120" font-size="12" font-weight="700" fill="#888">Collection</text>
<rect x="580" y="100" width="280" height="300" rx="12" fill="#0D2818" stroke="#ddd"/>
<text x="592" y="120" font-size="12" font-weight="700" fill="#888">Visualization</text>
<rect x="40" y="130" width="240" height="60" rx="9" fill="#0D2818" stroke="#27AE60" stroke-width="1.5"/>
<text x="160.0" y="158.0" font-size="13.5" font-weight="700" fill="#ECF0F1" text-anchor="middle">Spring Boot Actuator</text>
<text x="160.0" y="175.0" font-size="11.5" fill="#90A4AE" text-anchor="middle">/actuator/prometheus</text>
<rect x="40" y="210" width="240" height="60" rx="9" fill="#281E0D" stroke="#F5A623" stroke-width="2"/>
<text x="160.0" y="238.0" font-size="13.5" font-weight="700" fill="#ECF0F1" text-anchor="middle">Micrometer</text>
<text x="160.0" y="255.0" font-size="11.5" fill="#90A4AE" text-anchor="middle">jvm.gc.pause, memory, threads</text>
<rect x="40" y="290" width="240" height="60" rx="9" fill="#0D1B2A" stroke="#1E6FC8" stroke-width="2"/>
<text x="160.0" y="318.0" font-size="13.5" font-weight="700" fill="#ECF0F1" text-anchor="middle">JDK Flight Recorder</text>
<text x="160.0" y="335.0" font-size="11.5" fill="#90A4AE" text-anchor="middle">GC events, allocations, I/O</text>
<rect x="340" y="150" width="180" height="60" rx="9" fill="#122040" stroke="#1E3A5F" stroke-width="2"/>
<text x="430.0" y="178.0" font-size="13.5" font-weight="700" fill="#ECF0F1" text-anchor="middle">Prometheus</text>
<text x="430.0" y="195.0" font-size="11.5" fill="#90A4AE" text-anchor="middle">Scrapes /actuator/prom</text>
<rect x="340" y="280" width="180" height="60" rx="9" fill="#122040" stroke="#1E3A5F" stroke-width="2"/>
<text x="430.0" y="308.0" font-size="13.5" font-weight="700" fill="#ECF0F1" text-anchor="middle">Cryostat (OCP)</text>
<text x="430.0" y="325.0" font-size="11.5" fill="#90A4AE" text-anchor="middle">JFR management</text>
<rect x="600" y="130" width="240" height="80" rx="9" fill="#00BCD4" stroke="#00BCD4" stroke-width="2"/>
<text x="720.0" y="160.5" font-size="13.5" font-weight="700" fill="#ffffff" text-anchor="middle">Grafana</text>
<text x="720.0" y="177.5" font-size="11.5" fill="#dddddd" text-anchor="middle">GC pause histograms</text>
<text x="720.0" y="192.5" font-size="11.5" fill="#dddddd" text-anchor="middle">Memory used vs limit</text>
<rect x="600" y="240" width="240" height="70" rx="9" fill="#122040" stroke="#1E3A5F" stroke-width="2"/>
<text x="720.0" y="265.5" font-size="13.5" font-weight="700" fill="#ECF0F1" text-anchor="middle">Alerting</text>
<text x="720.0" y="282.5" font-size="11.5" fill="#90A4AE" text-anchor="middle">PrometheusRule:</text>
<text x="720.0" y="297.5" font-size="11.5" fill="#90A4AE" text-anchor="middle">GC P99 &gt; 500ms for 2m</text>
<rect x="600" y="330" width="240" height="60" rx="9" fill="#0D1B2A" stroke="#1E6FC8" stroke-width="2"/>
<text x="720.0" y="358.0" font-size="13.5" font-weight="700" fill="#ECF0F1" text-anchor="middle">Cryostat UI</text>
<text x="720.0" y="375.0" font-size="11.5" fill="#90A4AE" text-anchor="middle">JFR recordings, analysis</text>
<path d="M280,160 L340,180" fill="none" stroke="#555" stroke-width="2" marker-end="url(#a)"/>
<text x="316.0" y="164.0" font-size="11" fill="#ffffff" stroke="#ffffff" stroke-width="3" paint-order="stroke" text-anchor="middle">metrics</text>
<text x="316.0" y="164.0" font-size="11" fill="#555" text-anchor="middle">metrics</text>
<path d="M280,240 L340,180" fill="none" stroke="#555" stroke-width="2" stroke-dasharray="5 4" marker-end="url(#a)"/>
<path d="M280,320 L340,310" fill="none" stroke="#555" stroke-width="2" marker-end="url(#a)"/>
<path d="M520,180 L600,170" fill="none" stroke="#b8650a" stroke-width="2" marker-end="url(#am)"/>
<text x="566.0" y="169.0" font-size="11" fill="#ffffff" stroke="#ffffff" stroke-width="3" paint-order="stroke" text-anchor="middle">query</text>
<text x="566.0" y="169.0" font-size="11" fill="#b8650a" text-anchor="middle">query</text>
<path d="M520,180 L600,275" fill="none" stroke="#555" stroke-width="2" stroke-dasharray="5 4" marker-end="url(#a)"/>
<path d="M520,310 L600,360" fill="none" stroke="#555" stroke-width="2" marker-end="url(#a)"/>
<text x="440" y="25" font-size="20" fill="#00BCD4" text-anchor="middle" font-weight="700">Spring Boot Observability Stack</text>
<text x="440" y="50" font-size="13" fill="#90A4AE" text-anchor="middle">Actuator + Micrometer → Prometheus → Grafana + JFR → Cryostat</text>
</svg>