<svg xmlns="http://www.w3.org/2000/svg" viewBox="0 0 880 380" font-family="'Red Hat Text', system-ui, sans-serif" role="img">
<defs><marker id="a" viewBox="0 0 10 10" refX="8.5" refY="5" markerWidth="9" markerHeight="9" orient="auto-start-reverse"><path d="M0,0 L10,5 L0,10 z" fill="#555"/></marker><marker id="am" viewBox="0 0 10 10" refX="8.5" refY="5" markerWidth="9" markerHeight="9" orient="auto-start-reverse"><path d="M0,0 L10,5 L0,10 z" fill="#b8650a"/></marker></defs>
<rect x="20" y="100" width="540" height="260" rx="12" fill="#0D1B2A" stroke="#ddd"/>
<text x="32" y="120" font-size="12" font-weight="700" fill="#888">JVM (Java 25)</text>
<rect x="580" y="100" width="280" height="260" rx="12" fill="#281E0D" stroke="#ddd"/>
<text x="592" y="120" font-size="12" font-weight="700" fill="#888">Native (C++)</text>
<rect x="40" y="130" width="160" height="70" rx="9" fill="#0D2818" stroke="#27AE60" stroke-width="1.5"/>
<text x="120.0" y="163.0" font-size="13.5" font-weight="700" fill="#ECF0F1" text-anchor="middle">Spring Controller</text>
<text x="120.0" y="180.0" font-size="11.5" fill="#90A4AE" text-anchor="middle">@GetMapping /stats</text>
<rect x="240" y="130" width="160" height="70" rx="9" fill="#0D1B2A" stroke="#1E6FC8" stroke-width="2"/>
<text x="320.0" y="163.0" font-size="13.5" font-weight="700" fill="#ECF0F1" text-anchor="middle">Arena.ofConfined()</text>
<text x="320.0" y="180.0" font-size="11.5" fill="#90A4AE" text-anchor="middle">Scoped native memory</text>
<rect x="40" y="230" width="160" height="70" rx="9" fill="#0D1B2A" stroke="#1E6FC8" stroke-width="2"/>
<text x="120.0" y="263.0" font-size="13.5" font-weight="700" fill="#ECF0F1" text-anchor="middle">MemorySegment</text>
<text x="120.0" y="280.0" font-size="11.5" fill="#90A4AE" text-anchor="middle">arena.allocateFrom()</text>
<rect x="240" y="230" width="160" height="70" rx="9" fill="#281E0D" stroke="#F5A623" stroke-width="2"/>
<text x="320.0" y="263.0" font-size="13.5" font-weight="700" fill="#ECF0F1" text-anchor="middle">MethodHandle</text>
<text x="320.0" y="280.0" font-size="11.5" fill="#90A4AE" text-anchor="middle">Linker.nativeLinker()</text>
<rect x="440" y="180" width="110" height="70" rx="9" fill="#122040" stroke="#1E3A5F" stroke-width="2"/>
<text x="495.0" y="213.0" font-size="13.5" font-weight="700" fill="#ECF0F1" text-anchor="middle">SymbolLookup</text>
<text x="495.0" y="230.0" font-size="11.5" fill="#90A4AE" text-anchor="middle">libjvmstats.so</text>
<rect x="600" y="130" width="240" height="70" rx="9" fill="#281E0D" stroke="#F5A623" stroke-width="2"/>
<text x="720.0" y="163.0" font-size="13.5" font-weight="700" fill="#ECF0F1" text-anchor="middle">computeP99()</text>
<text x="720.0" y="180.0" font-size="11.5" fill="#90A4AE" text-anchor="middle">C++ native function</text>
<rect x="600" y="230" width="240" height="70" rx="9" fill="#00BCD4" stroke="#00BCD4" stroke-width="2"/>
<text x="720.0" y="263.0" font-size="13.5" font-weight="700" fill="#ffffff" text-anchor="middle">Result</text>
<text x="720.0" y="280.0" font-size="11.5" fill="#dddddd" text-anchor="middle">Written to MemorySegment</text>
<path d="M200,165 L240,165" fill="none" stroke="#555" stroke-width="2" marker-end="url(#a)"/>
<text x="226.0" y="159.0" font-size="11" fill="#ffffff" stroke="#ffffff" stroke-width="3" paint-order="stroke" text-anchor="middle">open</text>
<text x="226.0" y="159.0" font-size="11" fill="#555" text-anchor="middle">open</text>
<path d="M320,200 L320,230" fill="none" stroke="#555" stroke-width="2" marker-end="url(#a)"/>
<text x="326.0" y="209.0" font-size="11" fill="#ffffff" stroke="#ffffff" stroke-width="3" paint-order="stroke" text-anchor="middle">allocate</text>
<text x="326.0" y="209.0" font-size="11" fill="#555" text-anchor="middle">allocate</text>
<path d="M200,265 L240,265" fill="none" stroke="#555" stroke-width="2" marker-end="url(#a)"/>
<path d="M400,265 L440,215" fill="none" stroke="#555" stroke-width="2" marker-end="url(#a)"/>
<text x="426.0" y="234.0" font-size="11" fill="#ffffff" stroke="#ffffff" stroke-width="3" paint-order="stroke" text-anchor="middle">lookup</text>
<text x="426.0" y="234.0" font-size="11" fill="#555" text-anchor="middle">lookup</text>
<path d="M550,215 L600,165" fill="none" stroke="#b8650a" stroke-width="2" marker-end="url(#am)"/>
<text x="581.0" y="184.0" font-size="11" fill="#ffffff" stroke="#ffffff" stroke-width="3" paint-order="stroke" text-anchor="middle">invoke</text>
<text x="581.0" y="184.0" font-size="11" fill="#b8650a" text-anchor="middle">invoke</text>
<path d="M720,200 L720,230" fill="none" stroke="#555" stroke-width="2" marker-end="url(#a)"/>
<path d="M600,265 L200,300" fill="none" stroke="#555" stroke-width="2" stroke-dasharray="5 4" marker-end="url(#a)"/>
<text x="406.0" y="276.5" font-size="11" fill="#ffffff" stroke="#ffffff" stroke-width="3" paint-order="stroke" text-anchor="middle">Arena.close() frees all</text>
<text x="406.0" y="276.5" font-size="11" fill="#555" text-anchor="middle">Arena.close() frees all</text>
<text x="440" y="25" font-size="20" fill="#00BCD4" text-anchor="middle" font-weight="700">Panama FFM Call Chain</text>
<text x="440" y="50" font-size="13" fill="#90A4AE" text-anchor="middle">Java → Arena → MemorySegment → MethodHandle → Native C++ — zero-leak by construction</text>
</svg>